<svg xmlns="http://www.w3.org/2000/svg" xmlns:xlink="http://www.w3.org/1999/xlink" version="1.1" id="Capa_1" x="0" y="0" viewBox="0 0 14.36 14.36" xml:space="preserve" width="128" height="128" enable-background="new 0 0 14.363 14.363">
  <path d="M11.36 2.37H3.07c-0.33 0-0.6 0.27-0.6 0.6v8.39c0 0.33 0.27 0.6 0.6 0.6h8.29c0.33 0 0.6-0.27 0.6-0.6V2.97C11.96 2.64 11.69 2.37 11.36 2.37zM11.07 11.07H3.37V3.26h7.7V11.07z" fill="#FFFFFF"/>
  <rect x="12.61" y="3.57" width="1.75" height="0.85" fill="#FFFFFF"/>
  <rect x="12.61" y="5.22" width="1.75" height="0.85" fill="#FFFFFF"/>
  <rect x="12.61" y="6.82" width="1.75" height="0.85" fill="#FFFFFF"/>
  <rect x="12.61" y="8.47" width="1.75" height="0.85" fill="#FFFFFF"/>
  <rect x="12.61" y="10.19" width="1.75" height="0.85" fill="#FFFFFF"/>
  <rect x="10.1" y="0.05" width="0.85" height="1.75" fill="#FFFFFF"/>
  <rect x="8.45" y="0.05" width="0.85" height="1.75" fill="#FFFFFF"/>
  <rect x="6.86" y="0.05" width="0.85" height="1.75" fill="#FFFFFF"/>
  <rect x="5.21" y="0.05" width="0.85" height="1.75" fill="#FFFFFF"/>
  <rect x="3.49" y="0.05" width="0.85" height="1.75" fill="#FFFFFF"/>
  <rect x="0" y="10.13" width="1.75" height="0.85" fill="#FFFFFF"/>
  <rect x="0" y="8.48" width="1.75" height="0.85" fill="#FFFFFF"/>
  <rect x="0" y="6.88" width="1.75" height="0.85" fill="#FFFFFF"/>
  <rect x="0" y="5.23" width="1.75" height="0.85" fill="#FFFFFF"/>
  <rect x="0" y="3.51" width="1.75" height="0.85" fill="#FFFFFF"/>
  <rect x="3.55" y="12.56" width="0.85" height="1.75" fill="#FFFFFF"/>
  <rect x="5.2" y="12.56" width="0.85" height="1.75" fill="#FFFFFF"/>
  <rect x="6.79" y="12.56" width="0.85" height="1.75" fill="#FFFFFF"/>
  <rect x="8.44" y="12.56" width="0.85" height="1.75" fill="#FFFFFF"/>
  <rect x="10.16" y="12.56" width="0.85" height="1.75" fill="#FFFFFF"/>
  <circle cx="9.34" cy="9.32" r="0.82" fill="#FFFFFF"/>
</svg>
