<svg xmlns="http://www.w3.org/2000/svg" xmlns:xlink="http://www.w3.org/1999/xlink" version="1.1" id="Layer_1" x="0" y="0" width="32" height="32" viewBox="0 0 32 32" enable-background="new 0 0 32 32" xml:space="preserve">
  <g id="data">
    <path fill="#333333" d="M16 0C9.26 0 2 2.03 2 6.5v19C2 29.97 9.26 32 16 32c6.74 0 14-2.03 14-6.5v-19C30 2.03 22.74 0 16 0zM28 25.5c0 2.48-5.37 4.5-12 4.5 -6.63 0-12-2.02-12-4.5v-3.74C6.07 23.89 11.05 25 16 25c4.95 0 9.93-1.11 12-3.24V25.5zM28 19.5h0c0 0.01 0 0.02 0 0.03C28 22 22.63 24 16 24c-6.63 0-12-2-12-4.47 0-0.01 0-0.02 0-0.03H4v-3.74C6.07 17.89 11.05 19 16 19c4.95 0 9.93-1.11 12-3.24V19.5zM28 13.5h0c0 0.01 0 0.02 0 0.03C28 16 22.63 18 16 18c-6.63 0-12-2-12-4.47 0-0.01 0-0.02 0-0.03H4v-3.44C6.62 12.06 11.43 13 16 13c4.58 0 9.38-0.94 12-2.94V13.5zM16 11C9.37 11 4 8.98 4 6.5 4 4.01 9.37 2 16 2c6.63 0 12 2.01 12 4.5C28 8.98 22.63 11 16 11z"/>
    <circle fill="#333333" cx="25" cy="26" r="1"/>
    <circle fill="#333333" cx="25" cy="20" r="1"/>
    <circle fill="#333333" cx="25" cy="14" r="1"/>
  </g>
</svg>
