<svg xmlns="http://www.w3.org/2000/svg" xmlns:xlink="http://www.w3.org/1999/xlink" version="1.1" id="Capa_1" x="0" y="0" viewBox="0 0 198.69 198.69" xml:space="preserve" enable-background="new 0 0 198.686 198.686">
  <path d="M108.73 73.75v2.42c0 6.07-4.93 11-11 11h-7.77V62.75h7.78C103.8 62.75 108.73 67.68 108.73 73.75zM143.18 62.75h-7.77v24.42h7.78c6.07 0 11-4.93 11-11v-2.42C154.18 67.68 149.24 62.75 143.18 62.75zM186.76 15.35v144.46 9.13 14.4c0 8.47-6.89 15.35-15.35 15.35H27.28c-8.46 0-15.35-6.89-15.35-15.35v-14.4 -9.12V15.35C11.93 6.89 18.81 0 27.28 0h144.13C179.87 0 186.76 6.89 186.76 15.35zM125.4 92.17c0 2.76 2.24 5 5 5h12.78c11.58 0 21-9.42 21-21v-2.42c0-11.58-9.42-21-21-21h-12.77c-2.76 0-5 2.24-5 5V92.17zM79.96 92.17c0 2.76 2.24 5 5 5H97.73c11.58 0 21-9.42 21-21v-2.42c0-11.58-9.42-21-21-21H84.96c-2.76 0-5 2.24-5 5V92.17zM34.51 92.17c0 2.76 2.24 5 5 5s5-2.24 5-5V79.96h18.77v12.21c0 2.76 2.24 5 5 5s5-2.24 5-5V57.75c0-2.76-2.24-5-5-5s-5 2.24-5 5V69.96H44.51V57.75c0-2.76-2.24-5-5-5s-5 2.24-5 5V92.17zM176.76 159.81c0-2.95-2.4-5.35-5.35-5.35H27.28c-2.95 0-5.35 2.4-5.35 5.35v23.53c0 2.95 2.4 5.35 5.35 5.35h144.13c2.95 0 5.35-2.4 5.35-5.35V159.81zM41.09 166.57h-0.25c-2.76 0-5 2.24-5 5s2.24 5 5 5h0.25c2.76 0 5-2.24 5-5S43.85 166.57 41.09 166.57zM159.54 166.57h-12.33c-2.76 0-5 2.24-5 5s2.24 5 5 5h12.33c2.76 0 5-2.24 5-5S162.3 166.57 159.54 166.57z"/>
</svg>
