<svg xmlns="http://www.w3.org/2000/svg" xmlns:xlink="http://www.w3.org/1999/xlink" version="1.1" x="0" y="0" width="512" height="512" viewBox="0 0 512 512" xml:space="preserve" enable-background="new 0 0 512 512">
  <g id="Guides_For_Artboard_1_"/>
  <g id="Artwork"/>
  <g id="Layer_2">
    <path d="M402.17 336.59c-60.43-21.79-79.74-40.18-79.74-79.54 0-4.34 0.63-7.62 1.69-10.35 4.74-12.16 18.25-13.51 24.86-48.84 3.37-17.95 19.66-0.29 22.78-41.27 0-16.33-8.9-20.39-8.9-20.39s4.52-24.17 6.29-42.77c2.2-23.18-13.53-83.06-97.41-83.06 -0.36 0-0.7 0.02-1.06 0.03 -0.36-0.01-0.7-0.02-1.06-0.02 -83.88 0-99.6 59.88-97.41 83.06 1.77 18.6 6.29 42.77 6.29 42.77s-8.9 4.06-8.9 20.39c3.12 40.98 19.42 23.32 22.78 41.27 6.61 35.32 20.12 36.67 24.86 48.84 1.06 2.73 1.69 6.01 1.69 10.35 0 39.36-19.31 57.75-79.75 79.54 -60.62 21.86-87.88 44.15-87.88 59.35 0 15.18 0 99.58 0 99.58h219.23 0.3 219.23c0 0 0-84.4 0-99.58C490.06 380.74 462.8 358.44 402.17 336.59z"/>
  </g>
</svg>
