<svg xmlns="http://www.w3.org/2000/svg" xmlns:xlink="http://www.w3.org/1999/xlink" version="1.1" id="Capa_1" x="0" y="0" width="612" height="612" viewBox="0 0 612 612" xml:space="preserve" enable-background="new 0 0 612 612">
  <g id="Shape_878">
    <path d="M591.6 0.01H20.4C9.13 0.01 0 9.14 0 20.4V153h612v-132.6C612 9.14 602.87 0.01 591.6 0.01zM198.9 101.99H86.7c-8.45 0-15.3-6.84-15.3-15.28 0-8.47 6.85-15.3 15.3-15.3h112.2c8.45 0 15.3 6.83 15.3 15.3C214.2 95.15 207.35 101.99 198.9 101.99zM341.7 101.99h-61.2c-8.45 0-15.3-6.85-15.3-15.28 0-8.47 6.85-15.3 15.3-15.3h61.2c8.46 0 15.3 6.83 15.3 15.3C357 95.15 350.16 101.99 341.7 101.99zM474.3 101.99c-8.44 0-15.3-6.85-15.3-15.28 0-8.47 6.85-15.3 15.3-15.3s15.3 6.83 15.3 15.3C489.6 95.15 482.75 101.99 474.3 101.99zM525.3 101.99c-8.46 0-15.3-6.85-15.3-15.28 0-8.47 6.85-15.3 15.3-15.3 8.45 0 15.3 6.83 15.3 15.3C540.6 95.15 533.75 101.99 525.3 101.99zM0 458.99c0 11.26 9.13 20.41 20.4 20.41h275.4V591.6H10.2c-5.63 0-10.2 4.55-10.2 10.19s4.57 10.2 10.2 10.2h591.6c5.63 0 10.2-4.56 10.2-10.2s-4.57-10.19-10.2-10.19H316.2V479.4H591.6c11.27 0 20.4-9.15 20.4-20.41V326.41H0V458.99zM525.3 377.4c8.45 0 15.3 6.85 15.3 15.3S533.75 408 525.3 408c-8.46 0-15.3-6.85-15.3-15.3S516.85 377.4 525.3 377.4zM474.3 377.4c8.45 0 15.3 6.85 15.3 15.3S482.75 408 474.3 408s-15.3-6.85-15.3-15.3S465.85 377.4 474.3 377.4zM280.5 377.4h61.2c8.45 0 15.3 6.85 15.3 15.3S350.15 408 341.7 408h-61.2c-8.45 0-15.3-6.85-15.3-15.3S272.05 377.4 280.5 377.4zM86.7 377.4h112.2c8.45 0 15.3 6.85 15.3 15.3S207.35 408 198.9 408H86.7c-8.45 0-15.3-6.85-15.3-15.3S78.25 377.4 86.7 377.4zM0 306h612V173.41H0V306zM525.3 224.39c8.45 0 15.3 6.87 15.3 15.3 0 8.47-6.85 15.3-15.3 15.3 -8.46 0-15.3-6.83-15.3-15.3C510 231.25 516.85 224.39 525.3 224.39zM474.3 224.39c8.45 0 15.3 6.87 15.3 15.3 0 8.47-6.85 15.3-15.3 15.3s-15.3-6.83-15.3-15.3C459 231.25 465.85 224.39 474.3 224.39zM280.5 224.39h61.2c8.45 0 15.3 6.87 15.3 15.3 0 8.47-6.85 15.3-15.3 15.3h-61.2c-8.45 0-15.3-6.83-15.3-15.3C265.2 231.25 272.05 224.39 280.5 224.39zM86.7 224.39h112.2c8.45 0 15.3 6.87 15.3 15.3 0 8.47-6.85 15.3-15.3 15.3H86.7c-8.45 0-15.3-6.83-15.3-15.3C71.4 231.25 78.25 224.39 86.7 224.39z"/>
  </g>
</svg>
