<svg xmlns="http://www.w3.org/2000/svg" xmlns:xlink="http://www.w3.org/1999/xlink" version="1.1" id="Layer_1" x="0" y="0" width="792" height="792" viewBox="0 0 792 792" xml:space="preserve" enable-background="new 0 0 792 792">
  <path d="M263.79 0c0 0-165.01 96.04-173.79 101.48v352.88l269.96 157.64c0 0 156.57-91.34 168.24-98.19V154.41L263.79 0zM498.41 496.93l-122.89 71.77V269.96l122.93-71.85L498.41 496.93zM397.58 301.09c-4.16-7.08-1.79-16.19 5.29-20.35l51.84-30.45c7.08-4.17 16.19-1.79 20.36 5.29 4.16 7.08 1.79 16.2-5.29 20.36l-51.84 30.45c-2.6 1.53-5.47 2.17-8.27 2.03C404.83 308.16 400.22 305.57 397.58 301.09zM475.97 314.98c4.15 7.09 1.77 16.2-5.32 20.35l-51.89 30.37c-2.6 1.52-5.47 2.17-8.28 2.02 -4.83-0.25-9.44-2.85-12.07-7.34 -4.15-7.09-1.77-16.2 5.32-20.35l51.89-30.37C462.71 305.51 471.82 307.9 475.97 314.98zM463.69 470.03c-0.92 20.18-10.95 36.13-22.41 35.6 -11.46-0.52-20-17.31-19.08-37.49 0.92-20.18 10.95-36.12 22.41-35.6S464.61 449.85 463.69 470.03z"/>
</svg>
