<svg xmlns="http://www.w3.org/2000/svg" xmlns:xlink="http://www.w3.org/1999/xlink" version="1.1" id="Layer_1" x="0" y="0" width="100" height="100" viewBox="0 0 100 100" enable-background="new 0 0 100 100" xml:space="preserve">
  <path d="M32.91 36.65C32.91 36.65 32.91 36.65 32.91 36.65c1.08 1.07 2.16 2.3 3.22 3.64 6.2 7.85 9.97 12.06 13.01 14.51 0 0 0 0 0.01 0.01 0.01 0.01 0.02 0.02 0.03 0.02 3.98 3.19 6.62 3.17 10.1 2.01 4.14-1.39 18.49-10.72 20.41-11.98 -0.14-0.17-0.24-0.38-0.24-0.62 0-10.79-6.88-19.56-15.35-19.62l-36.59 8.01C29.26 33.46 31.06 34.8 32.91 36.65 32.91 36.65 32.91 36.65 32.91 36.65zM73.85 38.42c1.88 0 3.41 1.53 3.41 3.41s-1.53 3.41-3.4 3.41 -3.4-1.53-3.4-3.4S71.97 38.42 73.85 38.42z"/>
  <circle cx="73.85" cy="41.83" r="1.41"/>
  <path d="M30.22 36.87c-3.22-2.82-6.14-3.86-8.69-3.07 -3.33 1.03-5.27 5.02-5.7 7.29 -0.46 2.42 0.48 7.32 3.73 9.2C21.31 43.65 25.32 38.63 30.22 36.87z"/>
  <path d="M34.1 48.91c-2.73 0-5.03 4.06-5.03 8.88s2.31 8.88 5.03 8.88 5.03-4.06 5.03-8.87S36.82 48.91 34.1 48.91zM37.68 57.25c0.05 0.62 0.36 6.1-2.96 7.45 -0.12 0.05-0.25 0.07-0.38 0.07 -0.39 0-0.77-0.23-0.93-0.62 -0.21-0.51 0.04-1.09 0.55-1.3 1.69-0.69 1.81-4.25 1.72-5.45 -0.04-0.55 0.37-1.03 0.92-1.07C37.16 56.29 37.64 56.7 37.68 57.25z"/>
  <path d="M47.54 56.07c-3.1-2.58-6.9-6.85-12.98-14.54 -0.89-1.12-1.79-2.14-2.69-3.07 -4.91 1.2-9.01 6.27-10.58 13.16 0.02 0.16 0.02 0.32-0.04 0.48 -0.03 0.07-0.07 0.13-0.1 0.19 -0.36 1.79-0.55 3.63-0.55 5.5 0 10.98 8.17 18.63 15.5 18.63 0.65 0 1.26-0.08 1.87-0.2l2.65-0.99c4.35-2.5 6.99-8.79 6.99-17.43C47.6 57.23 47.57 56.66 47.54 56.07zM34.1 68.66c-3.94 0-7.03-4.78-7.03-10.87s3.09-10.87 7.03-10.87 7.03 4.78 7.03 10.88S38.04 68.66 34.1 68.66z"/>
  <path d="M55.55 59.56c-1.88 0-3.79-0.56-5.96-1.97 0 0.06 0 0.13 0 0.19 0 6.62-1.49 11.99-4.1 15.59l25.14-9.43c4.87-2.63 8.25-9.12 8.75-16.51 -4.26 2.76-15.62 10-19.47 11.29C58.41 59.23 56.99 59.56 55.55 59.56z"/>
</svg>
